<?xml version="1.0" standalone="no"?><!-- Generator: Gravit.io --><svg xmlns="http://www.w3.org/2000/svg" xmlns:xlink="http://www.w3.org/1999/xlink" style="isolation:isolate" viewBox="102 27.498 906 1024" width="906" height="1024"><defs><clipPath id="_clipPath_OpPuANRciPRFfOsb1Is3qT4hOaWVWAi6"><rect x="102" y="27.498" width="906" height="1024"/></clipPath></defs><g clip-path="url(#_clipPath_OpPuANRciPRFfOsb1Is3qT4hOaWVWAi6)"><g><rect x="466.957" y="105.868" width="176.108" height="63.218" transform="matrix(1,0,0,1,0,0)" fill="rgb(255,145,2)"/><linearGradient id="_lgradient_0" x1="1.009165204185983" y1="0.2781251813252631" x2="0.3843755597665789" y2="-0.34662599082539636" gradientTransform="matrix(176.102,0,0,63.218,466.949,105.868)" gradientUnits="userSpaceOnUse"><stop offset="0%" stop-opacity="0" style="stop-color:rgb(255,194,0)"/><stop offset="16.1%" stop-opacity="0.161" style="stop-color:rgb(253,187,0)"/><stop offset="39.7%" stop-opacity="0.397" style="stop-color:rgb(247,167,0)"/><stop offset="67.80000000000001%" stop-opacity="0.678" style="stop-color:rgb(238,135,0)"/><stop offset="99.2%" stop-opacity="0.992" style="stop-color:rgb(224,91,0)"/><stop offset="100%" stop-opacity="1" style="stop-color:rgb(224,90,0)"/></linearGradient><path d=" M 466.949 118.982 L 517.075 169.086 L 643.051 169.086 L 643.051 105.868 L 466.949 105.868 L 466.949 118.982 Z " fill="url(#_lgradient_0)"/><linearGradient id="_lgradient_1" x1="0.8378920049692882" y1="0.1620047427358695" x2="0.11750691973221206" y2="0.8825738813927813" gradientTransform="matrix(115.969,0,0,115.912,820.134,200.464)" gradientUnits="userSpaceOnUse"><stop offset="0%" stop-opacity="1" style="stop-color:rgb(194,206,206)"/><stop offset="100%" stop-opacity="1" style="stop-color:rgb(151,170,170)"/></linearGradient><path d=" M 858.699 308.336 L 828.178 277.83 C 817.453 267.11 817.453 249.73 828.178 239.01 L 858.699 208.504 C 869.424 197.784 886.813 197.784 897.538 208.504 L 928.059 239.01 C 938.784 249.73 938.784 267.11 928.059 277.83 L 897.538 308.336 C 886.813 319.056 869.424 319.056 858.699 308.336 Z " fill="url(#_lgradient_1)"/><linearGradient id="_lgradient_2" x1="0.5000175168625685" y1="-0.22047734485774467" x2="0.5000175168625682" y2="1.0473034903418454" gradientTransform="matrix(906,0,0,905.556,102,145.942)" gradientUnits="userSpaceOnUse"><stop offset="0%" stop-opacity="1" style="stop-color:rgb(255,207,149)"/><stop offset="42.699999999999996%" stop-opacity="1" style="stop-color:rgb(255,201,84)"/><stop offset="100%" stop-opacity="1" style="stop-color:rgb(255,194,0)"/></linearGradient><ellipse vector-effect="non-scaling-stroke" cx="554.9999999999999" cy="598.7199261359872" rx="453" ry="452.7780000000001" fill="url(#_lgradient_2)"/><linearGradient id="_lgradient_3" x1="0.22844772090551546" y1="0.228406834834526" x2="0.7452071872352098" y2="0.7451663011642207" gradientTransform="matrix(817.084,0,0,816.684,146.458,190.378)" gradientUnits="userSpaceOnUse"><stop offset="0%" stop-opacity="1" style="stop-color:rgb(255,255,255)"/><stop offset="100%" stop-opacity="1" style="stop-color:rgb(232,239,238)"/></linearGradient><ellipse vector-effect="non-scaling-stroke" cx="555" cy="598.719926135987" rx="408.5422127400183" ry="408.3420000000001" fill="url(#_lgradient_3)"/><linearGradient id="_lgradient_4" x1="0.5000627472434263" y1="-0.06517654876718768" x2="0.500062747243426" y2="1.1394373618031357" gradientTransform="matrix(235.916,0,0,93.526,437.042,27.498)" gradientUnits="userSpaceOnUse"><stop offset="0%" stop-opacity="1" style="stop-color:rgb(255,194,0)"/><stop offset="26.8%" stop-opacity="1" style="stop-color:rgb(255,187,0)"/><stop offset="65.9%" stop-opacity="1" style="stop-color:rgb(255,168,1)"/><stop offset="100%" stop-opacity="1" style="stop-color:rgb(255,145,2)"/></linearGradient><path d=" M 629.939 121.024 L 480.063 121.024 C 456.304 121.024 437.042 101.772 437.042 78.024 L 437.042 70.498 C 437.042 46.75 456.304 27.498 480.063 27.498 L 629.937 27.498 C 653.696 27.498 672.958 46.75 672.958 70.498 L 672.958 78.024 C 672.958 101.772 653.698 121.024 629.939 121.024 Z " fill="url(#_lgradient_4)"/><linearGradient id="_lgradient_5" x1="0.5000891780528627" y1="1.5553233058187035" x2="0.5000891780528628" y2="-0.9495044490302174" gradientTransform="matrix(166.744,0,0,93.526,471.629,27.498)" gradientUnits="userSpaceOnUse"><stop offset="0%" stop-opacity="1" style="stop-color:rgb(255,194,0)"/><stop offset="26.8%" stop-opacity="1" style="stop-color:rgb(255,187,0)"/><stop offset="65.9%" stop-opacity="1" style="stop-color:rgb(255,168,1)"/><stop offset="100%" stop-opacity="1" style="stop-color:rgb(255,145,2)"/></linearGradient><path d=" M 602.203 121.024 L 507.797 121.024 C 487.821 121.024 471.629 104.838 471.629 84.874 L 471.629 63.65 C 471.627 43.684 487.821 27.498 507.797 27.498 L 602.205 27.498 C 622.181 27.498 638.373 43.684 638.373 63.648 L 638.373 84.872 C 638.373 104.838 622.179 121.024 602.203 121.024 Z " fill="url(#_lgradient_5)"/><linearGradient id="_lgradient_6" x1="0.5002180592213792" y1="-0.06517654876718768" x2="0.500218059221379" y2="1.1394373618031357" gradientTransform="matrix(72.78,0,0,93.526,518.61,27.498)" gradientUnits="userSpaceOnUse"><stop offset="0%" stop-opacity="1" style="stop-color:rgb(255,194,0)"/><stop offset="26.8%" stop-opacity="1" style="stop-color:rgb(255,187,0)"/><stop offset="65.9%" stop-opacity="1" style="stop-color:rgb(255,168,1)"/><stop offset="100%" stop-opacity="1" style="stop-color:rgb(255,145,2)"/></linearGradient><path d=" M 567.494 121.024 L 542.504 121.024 C 529.307 121.024 518.61 110.332 518.61 97.142 L 518.61 51.382 C 518.61 38.19 529.309 27.498 542.506 27.498 L 567.496 27.498 C 580.693 27.498 591.39 38.19 591.39 51.38 L 591.39 97.14 C 591.39 110.332 580.691 121.024 567.494 121.024 Z " fill="url(#_lgradient_6)"/><g><path d=" M 255.492 463.108 L 213.351 447.068 C 209.725 445.69 205.701 447.516 204.289 451.13 C 202.908 454.752 204.729 458.808 208.353 460.188 L 250.493 476.228 C 254.045 477.58 258.013 475.862 259.468 472.382 C 259.498 472.312 259.526 472.24 259.556 472.166 C 260.936 468.544 259.117 464.488 255.492 463.108 Z " fill="rgb(91,106,106)"/><path d=" M 897.432 731.512 L 855.292 715.472 C 851.666 714.094 847.642 715.92 846.229 719.534 C 844.85 723.156 846.669 727.212 850.293 728.592 L 892.434 744.632 C 895.985 745.984 899.953 744.266 901.408 740.786 C 901.438 740.716 901.466 740.644 901.494 740.57 C 902.877 736.948 901.058 732.892 897.432 731.512 Z " fill="rgb(91,106,106)"/><path d=" M 697.686 247.416 C 694.063 246.038 690.005 247.856 688.624 251.478 L 672.576 293.598 C 671.223 297.148 672.946 301.114 676.424 302.568 C 676.494 302.598 676.566 302.626 676.64 302.654 C 680.264 304.032 684.322 302.214 685.702 298.592 L 701.75 256.472 C 703.129 252.852 701.302 248.83 697.686 247.416 Z " fill="rgb(91,106,106)"/><path d=" M 429.149 889.042 C 425.525 887.664 421.467 889.482 420.086 893.104 L 404.038 935.224 C 402.686 938.776 404.405 942.74 407.886 944.194 C 407.956 944.224 408.028 944.252 408.102 944.28 C 411.726 945.66 415.784 943.84 417.165 940.218 L 433.213 898.098 C 434.593 894.478 432.766 890.456 429.149 889.042 Z " fill="rgb(91,106,106)"/><path d=" M 326.53 819.612 C 323.707 816.954 319.263 817.086 316.604 819.908 L 285.682 852.712 C 283.023 855.534 283.177 859.948 285.979 862.634 C 288.802 865.292 293.246 865.16 295.905 862.338 L 326.827 829.534 C 329.432 826.768 329.358 822.448 326.697 819.774 C 326.64 819.718 326.584 819.666 326.53 819.612 Z " fill="rgb(91,106,106)"/><path d=" M 819.81 329.064 C 816.987 326.406 812.543 326.538 809.883 329.36 L 778.962 362.164 C 776.303 364.986 776.457 369.4 779.258 372.086 C 782.082 374.744 786.526 374.612 789.185 371.79 L 820.106 338.986 C 822.712 336.22 822.638 331.9 819.976 329.226 C 819.922 329.172 819.866 329.118 819.81 329.064 Z " fill="rgb(91,106,106)"/><path d=" M 295.903 328.766 C 293.08 326.108 288.664 326.262 285.977 329.062 C 283.317 331.884 283.449 336.326 286.273 338.984 L 319.093 369.89 C 321.86 372.494 326.182 372.42 328.858 369.76 C 328.912 369.706 328.966 369.652 329.02 369.594 C 331.679 366.772 331.547 362.33 328.724 359.672 L 295.903 328.766 Z " fill="rgb(91,106,106)"/><path d=" M 786.692 821.806 C 783.869 819.148 779.452 819.302 776.765 822.102 C 774.106 824.924 774.238 829.366 777.061 832.024 L 809.881 862.93 C 812.649 865.534 816.971 865.46 819.646 862.8 C 819.7 862.746 819.754 862.692 819.808 862.634 C 822.467 859.812 822.335 855.37 819.512 852.712 L 786.692 821.806 Z " fill="rgb(91,106,106)"/><path d=" M 257.971 715.71 C 256.382 712.172 252.23 710.592 248.688 712.178 L 207.542 730.618 C 204.002 732.206 202.45 736.34 204.008 739.896 C 205.597 743.434 209.749 745.014 213.291 743.428 L 254.437 724.988 C 257.905 723.432 259.494 719.414 258.063 715.924 C 258.035 715.854 258.003 715.782 257.971 715.71 Z " fill="rgb(91,106,106)"/><path d=" M 857.096 479.522 L 898.243 461.082 C 901.71 459.526 903.299 455.508 901.866 452.018 C 901.836 451.948 901.806 451.876 901.774 451.804 C 900.186 448.266 896.034 446.686 892.492 448.272 L 851.346 466.712 C 847.806 468.3 846.253 472.434 847.812 475.99 C 849.401 479.526 853.555 481.108 857.096 479.522 Z " fill="rgb(91,106,106)"/><path d=" M 418.057 250.67 C 416.469 247.132 412.332 245.58 408.775 247.138 C 405.235 248.726 403.654 252.876 405.241 256.416 L 423.69 297.542 C 425.247 301.008 429.267 302.596 432.758 301.166 C 432.829 301.136 432.901 301.106 432.973 301.074 C 436.512 299.486 438.093 295.336 436.506 291.796 L 418.057 250.67 Z " fill="rgb(91,106,106)"/><path d=" M 682.097 894.158 C 680.508 890.62 676.372 889.068 672.814 890.626 C 669.274 892.214 667.694 896.364 669.28 899.904 L 687.729 941.03 C 689.286 944.496 693.306 946.084 696.798 944.654 C 696.868 944.624 696.94 944.594 697.012 944.562 C 700.552 942.974 702.132 938.824 700.546 935.284 L 682.097 894.158 Z " fill="rgb(91,106,106)"/></g><linearGradient id="_lgradient_7" x1="5.317707879629378" y1="-0.14892034510753605" x2="-5.852901306149368" y2="4.5965342660162" gradientTransform="matrix(51.462,-51.436,154.238,154.163,370.533,463.335)" gradientUnits="userSpaceOnUse"><stop offset="0%" stop-opacity="1" style="stop-color:rgb(194,206,206)"/><stop offset="100%" stop-opacity="1" style="stop-color:rgb(151,170,170)"/></linearGradient><path d=" M 395.491 446.31 L 475.641 552.442 L 524.771 617.498 L 550.501 591.78 L 576.232 566.062 L 533.414 533.757 L 490.597 501.453 L 466.798 483.498 L 404.961 436.845 C 398.729 432.512 391.154 440.083 395.491 446.31 Z " fill="url(#_lgradient_7)"/><linearGradient id="_lgradient_8" x1="0.5001795863146459" y1="0.003454187800017827" x2="0.5001795863146455" y2="1.6927259476043854" gradientTransform="matrix(88.371,0,0,88.328,508.708,551.694)" gradientUnits="userSpaceOnUse"><stop offset="0%" stop-opacity="1" style="stop-color:rgb(91,106,106)"/><stop offset="100%" stop-opacity="1" style="stop-color:rgb(48,48,51)"/></linearGradient><ellipse vector-effect="non-scaling-stroke" cx="552.893361821788" cy="595.8576708249641" rx="44.1856538966116" ry="44.16399999999999" fill="url(#_lgradient_8)"/></g><g><path d=" M 633.536 857.139 C 633.536 831.927 613.099 811.498 587.882 811.498 C 574.371 811.498 562.28 817.401 553.917 826.719 C 553.829 826.821 553.736 826.922 553.647 827.024 C 545.289 817.525 533.068 811.498 519.418 811.498 C 494.196 811.498 473.764 831.927 473.752 857.139 C 473.752 871.064 480.03 883.535 489.89 891.903 L 489.873 891.903 L 554.598 953.498 L 617.422 891.903 L 617.393 891.903 C 627.251 883.535 633.536 871.073 633.536 857.139 Z " fill="rgb(227,67,38)"/></g><g><path d=" M 310.685 578.152 C 300.927 560.912 280.96 536.097 243.646 513.185 C 243.354 513.005 242.973 513.005 242.683 513.185 C 205.374 536.097 185.402 560.158 175.642 577.398 C 164.163 597.673 170.708 622.17 191.584 632.528 C 197.027 635.227 200.983 635.582 205.677 635.582 C 205.677 635.582 206.826 635.543 208.717 635.261 C 217.106 634.008 224.818 629.933 230.786 623.908 L 231.635 623.052 C 232.876 621.799 235.004 622.783 234.84 624.54 C 233.954 634.055 232.233 648.329 224.949 657.408 C 222.716 660.191 224.544 664.3 228.114 664.3 L 258.238 664.3 C 261.798 664.3 263.613 660.202 261.383 657.427 C 254.007 648.248 252.341 633.752 251.44 624.235 C 251.299 622.749 253.132 621.948 254.138 623.052 L 254.138 623.052 C 259.34 628.779 266.053 632.988 273.538 634.956 C 277.704 636.052 280.644 636.339 280.644 636.339 C 285.338 636.339 289.297 635.984 294.737 633.285 C 315.618 622.924 322.163 598.427 310.685 578.152 Z " fill="rgb(44,47,56)"/></g><g><path d=" M 898.653 571.494 C 899.984 567.48 900.656 563.292 900.656 558.983 C 900.656 536.964 882.733 519.05 860.704 519.05 C 838.674 519.05 820.751 536.964 820.751 558.983 C 820.751 563.292 821.423 567.48 822.754 571.494 C 801.432 572.302 784.334 589.892 784.334 611.397 C 784.334 633.416 802.257 651.33 824.287 651.33 C 834.498 651.33 843.824 647.478 850.894 641.156 L 842.292 670.3 L 878.873 670.3 L 870.18 640.852 C 877.29 647.354 886.748 651.33 897.12 651.33 C 919.15 651.33 937.073 633.416 937.073 611.397 C 937.073 589.892 919.975 572.302 898.653 571.494 Z " fill="rgb(0,0,0)"/></g><g><path d=" M 627.785 307.982 L 557.404 413.501 L 483.505 307.982 L 553.885 209.498 L 627.785 307.982 Z " fill="rgb(230,76,60)"/></g></g></svg>